{
	"asset":{
		"generator":"Khronos glTF Blender I/O v3.6.27",
		"version":"2.0"
	},
	"extensionsUsed":[
		"KHR_materials_specular",
		"KHR_materials_ior"
	],
	"scene":0,
	"scenes":[
		{
			"name":"Scene",
			"nodes":[
				0,
				1,
				2,
				3,
				4,
				5,
				6,
				7
			]
		}
	],
	"nodes":[
		{
			"mesh":0,
			"name":"Object_pupil.jpg",
			"rotation":[
				0.7071068286895752,
				0,
				0,
				0.7071068286895752
			],
			"scale":[
				0.009999999776482582,
				0.009999999776482582,
				0.009999999776482582
			]
		},
		{
			"mesh":1,
			"name":"Object_glove.jpg",
			"rotation":[
				0.7071068286895752,
				0,
				0,
				0.7071068286895752
			],
			"scale":[
				0.009999999776482582,
				0.009999999776482582,
				0.009999999776482582
			]
		},
		{
			"mesh":2,
			"name":"Object_face.jpg",
			"rotation":[
				0.7071068286895752,
				0,
				0,
				0.7071068286895752
			],
			"scale":[
				0.009999999776482582,
				0.009999999776482582,
				0.009999999776482582
			]
		},
		{
			"mesh":3,
			"name":"Object_hat.jpg",
			"rotation":[
				0.7071068286895752,
				0,
				0,
				0.7071068286895752
			],
			"scale":[
				0.009999999776482582,
				0.009999999776482582,
				0.009999999776482582
			]
		},
		{
			"mesh":4,
			"name":"Object_eye1.jpg",
			"rotation":[
				0.7071068286895752,
				0,
				0,
				0.7071068286895752
			],
			"scale":[
				0.009999999776482582,
				0.009999999776482582,
				0.009999999776482582
			]
		},
		{
			"mesh":5,
			"name":"Object_body.jpg",
			"rotation":[
				0.7071068286895752,
				0,
				0,
				0.7071068286895752
			],
			"scale":[
				0.009999999776482582,
				0.009999999776482582,
				0.009999999776482582
			]
		},
		{
			"mesh":6,
			"name":"Object_hair.jpg",
			"rotation":[
				0.7071068286895752,
				0,
				0,
				0.7071068286895752
			],
			"scale":[
				0.009999999776482582,
				0.009999999776482582,
				0.009999999776482582
			]
		},
		{
			"name":"Object_default-grey.jpg",
			"rotation":[
				0.7071068286895752,
				0,
				0,
				0.7071068286895752
			],
			"scale":[
				0.009999999776482582,
				0.009999999776482582,
				0.009999999776482582
			]
		}
	],
	"materials":[
		{
			"doubleSided":true,
			"extensions":{
				"KHR_materials_specular":{
					"specularColorFactor":[
						2.371357614441398,
						2.371357614441398,
						2.371357614441398
					]
				},
				"KHR_materials_ior":{
					"ior":1.4500000476837158
				}
			},
			"name":"mat_0-pupil.jpg",
			"pbrMetallicRoughness":{
				"baseColorTexture":{
					"index":0
				},
				"roughnessFactor":0.6861662864685059
			}
		},
		{
			"doubleSided":true,
			"extensions":{
				"KHR_materials_specular":{
					"specularColorFactor":[
						2.371357614441398,
						2.371357614441398,
						2.371357614441398
					]
				},
				"KHR_materials_ior":{
					"ior":1.4500000476837158
				}
			},
			"name":"mat_1-glove.jpg",
			"pbrMetallicRoughness":{
				"baseColorTexture":{
					"index":1
				},
				"roughnessFactor":0.6861662864685059
			}
		},
		{
			"doubleSided":true,
			"extensions":{
				"KHR_materials_specular":{
					"specularColorFactor":[
						2.371357614441398,
						2.371357614441398,
						2.371357614441398
					]
				},
				"KHR_materials_ior":{
					"ior":1.4500000476837158
				}
			},
			"name":"mat_2-face.jpg",
			"pbrMetallicRoughness":{
				"baseColorTexture":{
					"index":2
				},
				"roughnessFactor":0.6861662864685059
			}
		},
		{
			"doubleSided":true,
			"extensions":{
				"KHR_materials_specular":{
					"specularColorFactor":[
						2.371357614441398,
						2.371357614441398,
						2.371357614441398
					]
				},
				"KHR_materials_ior":{
					"ior":1.4500000476837158
				}
			},
			"name":"mat_3-hat.jpg",
			"pbrMetallicRoughness":{
				"baseColorTexture":{
					"index":3
				},
				"roughnessFactor":0.6861662864685059
			}
		},
		{
			"doubleSided":true,
			"extensions":{
				"KHR_materials_specular":{
					"specularColorFactor":[
						2.371357614441398,
						2.371357614441398,
						2.371357614441398
					]
				},
				"KHR_materials_ior":{
					"ior":1.4500000476837158
				}
			},
			"name":"mat_4-eye1.jpg",
			"pbrMetallicRoughness":{
				"baseColorTexture":{
					"index":4
				},
				"roughnessFactor":0.6861662864685059
			}
		},
		{
			"doubleSided":true,
			"extensions":{
				"KHR_materials_specular":{
					"specularColorFactor":[
						2.371357614441398,
						2.371357614441398,
						2.371357614441398
					]
				},
				"KHR_materials_ior":{
					"ior":1.4500000476837158
				}
			},
			"name":"mat_5-body.jpg",
			"pbrMetallicRoughness":{
				"baseColorTexture":{
					"index":5
				},
				"roughnessFactor":0.6861662864685059
			}
		},
		{
			"doubleSided":true,
			"extensions":{
				"KHR_materials_specular":{
					"specularColorFactor":[
						2.371357614441398,
						2.371357614441398,
						2.371357614441398
					]
				},
				"KHR_materials_ior":{
					"ior":1.4500000476837158
				}
			},
			"name":"mat_6-hair.jpg",
			"pbrMetallicRoughness":{
				"baseColorTexture":{
					"index":6
				},
				"roughnessFactor":0.6861662864685059
			}
		}
	],
	"meshes":[
		{
			"name":"Mesh",
			"primitives":[
				{
					"attributes":{
						"POSITION":0,
						"NORMAL":1,
						"TEXCOORD_0":2
					},
					"indices":3,
					"material":0
				}
			]
		},
		{
			"name":"Mesh.001",
			"primitives":[
				{
					"attributes":{
						"POSITION":4,
						"NORMAL":5,
						"TEXCOORD_0":6
					},
					"indices":7,
					"material":1
				}
			]
		},
		{
			"name":"Mesh.002",
			"primitives":[
				{
					"attributes":{
						"POSITION":8,
						"NORMAL":9,
						"TEXCOORD_0":10
					},
					"indices":11,
					"material":2
				}
			]
		},
		{
			"name":"Mesh.003",
			"primitives":[
				{
					"attributes":{
						"POSITION":12,
						"NORMAL":13,
						"TEXCOORD_0":14
					},
					"indices":15,
					"material":3
				}
			]
		},
		{
			"name":"Mesh.004",
			"primitives":[
				{
					"attributes":{
						"POSITION":16,
						"NORMAL":17,
						"TEXCOORD_0":18
					},
					"indices":19,
					"material":4
				}
			]
		},
		{
			"name":"Mesh.005",
			"primitives":[
				{
					"attributes":{
						"POSITION":20,
						"NORMAL":21,
						"TEXCOORD_0":22
					},
					"indices":23,
					"material":5
				}
			]
		},
		{
			"name":"Mesh.006",
			"primitives":[
				{
					"attributes":{
						"POSITION":24,
						"NORMAL":25,
						"TEXCOORD_0":26
					},
					"indices":27,
					"material":6
				}
			]
		}
	],
	"textures":[
		{
			"sampler":0,
			"source":0
		},
		{
			"sampler":0,
			"source":1
		},
		{
			"sampler":0,
			"source":2
		},
		{
			"sampler":0,
			"source":3
		},
		{
			"sampler":0,
			"source":4
		},
		{
			"sampler":0,
			"source":5
		},
		{
			"sampler":0,
			"source":6
		}
	],
	"images":[
		{
			"mimeType":"image/jpeg",
			"name":"pupil",
			"uri":"pupil.jpg"
		},
		{
			"mimeType":"image/jpeg",
			"name":"glove",
			"uri":"glove.jpg"
		},
		{
			"mimeType":"image/jpeg",
			"name":"face",
			"uri":"face.jpg"
		},
		{
			"mimeType":"image/jpeg",
			"name":"hat",
			"uri":"hat.jpg"
		},
		{
			"mimeType":"image/jpeg",
			"name":"eye1",
			"uri":"eye1.jpg"
		},
		{
			"mimeType":"image/jpeg",
			"name":"body",
			"uri":"body.jpg"
		},
		{
			"mimeType":"image/jpeg",
			"name":"hair",
			"uri":"hair.jpg"
		}
	],
	"accessors":[
		{
			"bufferView":0,
			"componentType":5126,
			"count":42,
			"max":[
				-0.22342799603939056,
				0.2074200063943863,
				-0.4926320016384125
			],
			"min":[
				-0.2791390120983124,
				-0.20735999941825867,
				-0.7150020003318787
			],
			"type":"VEC3"
		},
		{
			"bufferView":1,
			"componentType":5126,
			"count":42,
			"type":"VEC3"
		},
		{
			"bufferView":2,
			"componentType":5126,
			"count":42,
			"type":"VEC2"
		},
		{
			"bufferView":3,
			"componentType":5123,
			"count":168,
			"type":"SCALAR"
		},
		{
			"bufferView":4,
			"componentType":5126,
			"count":448,
			"max":[
				0.3132550120353699,
				1.25,
				0.149275004863739
			],
			"min":[
				-0.12345000356435776,
				-1.25,
				-0.2706870138645172
			],
			"type":"VEC3"
		},
		{
			"bufferView":5,
			"componentType":5126,
			"count":448,
			"type":"VEC3"
		},
		{
			"bufferView":6,
			"componentType":5126,
			"count":448,
			"type":"VEC2"
		},
		{
			"bufferView":7,
			"componentType":5123,
			"count":2028,
			"type":"SCALAR"
		},
		{
			"bufferView":8,
			"componentType":5126,
			"count":666,
			"max":[
				0.23116399347782135,
				0.35933300852775574,
				-0.1350339949131012
			],
			"min":[
				-0.5784630179405212,
				-0.35928601026535034,
				-0.8565599918365479
			],
			"type":"VEC3"
		},
		{
			"bufferView":9,
			"componentType":5126,
			"count":666,
			"type":"VEC3"
		},
		{
			"bufferView":10,
			"componentType":5126,
			"count":666,
			"type":"VEC2"
		},
		{
			"bufferView":11,
			"componentType":5123,
			"count":3162,
			"type":"SCALAR"
		},
		{
			"bufferView":12,
			"componentType":5126,
			"count":290,
			"max":[
				0.5784630179405212,
				0.4627610146999359,
				-0.5088260173797607
			],
			"min":[
				-0.5441049933433533,
				-0.4625470042228699,
				-1.2257260084152222
			],
			"type":"VEC3"
		},
		{
			"bufferView":13,
			"componentType":5126,
			"count":290,
			"type":"VEC3"
		},
		{
			"bufferView":14,
			"componentType":5126,
			"count":290,
			"type":"VEC2"
		},
		{
			"bufferView":15,
			"componentType":5123,
			"count":1254,
			"type":"SCALAR"
		},
		{
			"bufferView":16,
			"componentType":5126,
			"count":68,
			"max":[
				-0.2084210067987442,
				0.24965800344944,
				-0.45396101474761963
			],
			"min":[
				-0.3105570077896118,
				-0.2496349960565567,
				-0.7451350092887878
			],
			"type":"VEC3"
		},
		{
			"bufferView":17,
			"componentType":5126,
			"count":68,
			"type":"VEC3"
		},
		{
			"bufferView":18,
			"componentType":5126,
			"count":68,
			"type":"VEC2"
		},
		{
			"bufferView":19,
			"componentType":5123,
			"count":318,
			"type":"SCALAR"
		},
		{
			"bufferView":20,
			"componentType":5126,
			"count":1341,
			"max":[
				0.3575350046157837,
				0.7812359929084778,
				1.2257260084152222
			],
			"min":[
				-0.32439500093460083,
				-0.7862359881401062,
				-0.368912011384964
			],
			"type":"VEC3"
		},
		{
			"bufferView":21,
			"componentType":5126,
			"count":1341,
			"type":"VEC3"
		},
		{
			"bufferView":22,
			"componentType":5126,
			"count":1341,
			"type":"VEC2"
		},
		{
			"bufferView":23,
			"componentType":5123,
			"count":6252,
			"type":"SCALAR"
		},
		{
			"bufferView":24,
			"componentType":5126,
			"count":331,
			"max":[
				0.4641129970550537,
				0.5072399973869324,
				-0.21654599905014038
			],
			"min":[
				-0.14501400291919708,
				-0.507049024105072,
				-0.854574978351593
			],
			"type":"VEC3"
		},
		{
			"bufferView":25,
			"componentType":5126,
			"count":331,
			"type":"VEC3"
		},
		{
			"bufferView":26,
			"componentType":5126,
			"count":331,
			"type":"VEC2"
		},
		{
			"bufferView":27,
			"componentType":5123,
			"count":1449,
			"type":"SCALAR"
		}
	],
	"bufferViews":[
		{
			"buffer":0,
			"byteLength":504,
			"byteOffset":0,
			"target":34962
		},
		{
			"buffer":0,
			"byteLength":504,
			"byteOffset":504,
			"target":34962
		},
		{
			"buffer":0,
			"byteLength":336,
			"byteOffset":1008,
			"target":34962
		},
		{
			"buffer":0,
			"byteLength":336,
			"byteOffset":1344,
			"target":34963
		},
		{
			"buffer":0,
			"byteLength":5376,
			"byteOffset":1680,
			"target":34962
		},
		{
			"buffer":0,
			"byteLength":5376,
			"byteOffset":7056,
			"target":34962
		},
		{
			"buffer":0,
			"byteLength":3584,
			"byteOffset":12432,
			"target":34962
		},
		{
			"buffer":0,
			"byteLength":4056,
			"byteOffset":16016,
			"target":34963
		},
		{
			"buffer":0,
			"byteLength":7992,
			"byteOffset":20072,
			"target":34962
		},
		{
			"buffer":0,
			"byteLength":7992,
			"byteOffset":28064,
			"target":34962
		},
		{
			"buffer":0,
			"byteLength":5328,
			"byteOffset":36056,
			"target":34962
		},
		{
			"buffer":0,
			"byteLength":6324,
			"byteOffset":41384,
			"target":34963
		},
		{
			"buffer":0,
			"byteLength":3480,
			"byteOffset":47708,
			"target":34962
		},
		{
			"buffer":0,
			"byteLength":3480,
			"byteOffset":51188,
			"target":34962
		},
		{
			"buffer":0,
			"byteLength":2320,
			"byteOffset":54668,
			"target":34962
		},
		{
			"buffer":0,
			"byteLength":2508,
			"byteOffset":56988,
			"target":34963
		},
		{
			"buffer":0,
			"byteLength":816,
			"byteOffset":59496,
			"target":34962
		},
		{
			"buffer":0,
			"byteLength":816,
			"byteOffset":60312,
			"target":34962
		},
		{
			"buffer":0,
			"byteLength":544,
			"byteOffset":61128,
			"target":34962
		},
		{
			"buffer":0,
			"byteLength":636,
			"byteOffset":61672,
			"target":34963
		},
		{
			"buffer":0,
			"byteLength":16092,
			"byteOffset":62308,
			"target":34962
		},
		{
			"buffer":0,
			"byteLength":16092,
			"byteOffset":78400,
			"target":34962
		},
		{
			"buffer":0,
			"byteLength":10728,
			"byteOffset":94492,
			"target":34962
		},
		{
			"buffer":0,
			"byteLength":12504,
			"byteOffset":105220,
			"target":34963
		},
		{
			"buffer":0,
			"byteLength":3972,
			"byteOffset":117724,
			"target":34962
		},
		{
			"buffer":0,
			"byteLength":3972,
			"byteOffset":121696,
			"target":34962
		},
		{
			"buffer":0,
			"byteLength":2648,
			"byteOffset":125668,
			"target":34962
		},
		{
			"buffer":0,
			"byteLength":2898,
			"byteOffset":128316,
			"target":34963
		}
	],
	"samplers":[
		{
			"magFilter":9729,
			"minFilter":9987
		}
	],
	"buffers":[
		{
			"byteLength":131216,
			"uri":"mario.bin"
		}
	]
}
